<?xml version="1.0" encoding="utf-8"?>
<!-- Generator: Adobe Illustrator 16.0.0, SVG Export Plug-In . SVG Version: 6.00 Build 0)  -->
<!DOCTYPE svg PUBLIC "-//W3C//DTD SVG 1.1//EN" "http://www.w3.org/Graphics/SVG/1.1/DTD/svg11.dtd">
<svg version="1.1" id="Layer_1" xmlns="http://www.w3.org/2000/svg" xmlns:xlink="http://www.w3.org/1999/xlink" x="0px" y="0px"
	 width="50px" height="50px" viewBox="0 0 50 50" enable-background="new 0 0 50 50" xml:space="preserve">
<path fill="#AAB3B6" d="M6.186,47.198c-0.453,0-0.904-0.188-1.229-0.554c-0.599-0.678-0.533-1.713,0.145-2.313
	c2.768-2.441,7.198-4.307,12.483-5.257c-0.033-0.834-0.03-1.704-0.028-2.546c0-0.659-0.485-1.588-1-2.571
	c-0.684-1.31-1.455-2.786-1.62-4.525c-0.862-1.872-1.336-3.712-1.336-5.208c0-0.862,0.166-1.603,0.495-2.212
	c-0.068-0.394-0.135-0.793-0.203-1.199c-0.086-0.512-0.172-1.033-0.267-1.562c-0.927-5.144,0.791-8.733,5.25-10.954
	c0.042-0.359,0.069-0.875,0.086-1.225c0.08-1.579,0.144-2.826,1.363-3.307c0.673-0.265,1.407-0.104,1.964,0.436
	c1.48,1.434,5.505,2.456,7.668,3.003c0.806,0.205,1.442,0.367,1.866,0.517c4.86,1.728,7.069,5.932,6.059,11.531
	c-0.091,0.509-0.176,1.015-0.26,1.512c-0.069,0.422-0.14,0.837-0.212,1.245c0.33,0.61,0.497,1.35,0.497,2.213
	c0,1.497-0.474,3.336-1.337,5.208c-0.168,1.763-0.952,3.284-1.648,4.635c-0.478,0.928-0.972,1.884-0.972,2.466
	c0.004,0.823,0.006,1.701-0.025,2.541c5.287,0.951,9.716,2.817,12.482,5.257c0.678,0.6,0.742,1.635,0.144,2.313
	c-0.597,0.677-1.631,0.744-2.311,0.144c-2.339-2.063-6.242-3.664-10.989-4.506c-1.55-0.272-2.67-1.654-2.604-3.214
	c0.034-0.797,0.033-1.646,0.029-2.526c0-1.384,0.648-2.641,1.335-3.973c0.616-1.199,1.255-2.437,1.312-3.636
	c0.01-0.221,0.065-0.436,0.161-0.634c0.73-1.514,1.148-2.999,1.148-4.075c0-0.458-0.084-0.643-0.117-0.675
	c-0.379-0.382-0.547-0.925-0.448-1.455c0.112-0.605,0.218-1.23,0.325-1.87c0.086-0.507,0.173-1.024,0.266-1.547
	c0.729-4.035-0.595-6.681-3.932-7.867c-0.28-0.1-0.909-0.259-1.575-0.428c-2.021-0.513-4.789-1.215-6.965-2.333
	c-0.096,1.362-0.322,2.484-1.395,2.967c-3.499,1.571-4.641,3.79-3.943,7.659c0.097,0.542,0.186,1.077,0.273,1.601
	c0.104,0.623,0.206,1.23,0.315,1.82c0.099,0.529-0.068,1.071-0.447,1.453c-0.03,0.03-0.115,0.22-0.115,0.677
	c0,1.075,0.418,2.561,1.147,4.076c0.096,0.197,0.149,0.413,0.16,0.633c0.056,1.17,0.676,2.358,1.276,3.509
	c0.674,1.29,1.372,2.624,1.372,4.092c-0.003,0.886-0.005,1.734,0.03,2.53c0.067,1.563-1.055,2.945-2.607,3.218
	c-4.743,0.841-8.646,2.441-10.987,4.506C6.958,47.063,6.571,47.198,6.186,47.198z"/>
</svg>
