<?xml version="1.0" encoding="utf-8"?>
<!-- Generator: Adobe Illustrator 16.0.0, SVG Export Plug-In . SVG Version: 6.00 Build 0)  -->
<!DOCTYPE svg PUBLIC "-//W3C//DTD SVG 1.1//EN" "http://www.w3.org/Graphics/SVG/1.1/DTD/svg11.dtd">
<svg version="1.1" id="Layer_1" xmlns="http://www.w3.org/2000/svg" xmlns:xlink="http://www.w3.org/1999/xlink" x="0px" y="0px"
	 width="50px" height="50px" viewBox="0 0 50 50" enable-background="new 0 0 50 50" xml:space="preserve">
<path fill="#AAB3B6" d="M43.262,4.652c-0.115,0-0.224,0.034-0.336,0.048V4.699l-0.007,0.002c-0.284,0.036-0.559,0.115-0.824,0.236
	L6.975,14.992c-0.145,0.024-0.286,0.064-0.424,0.122L6.34,15.174l0.01,0.033c-0.755,0.411-1.398,1.309-1.891,2.485
	c-2.425,0.966-4.052,3.3-4.052,5.985c0,2.709,1.655,5.057,4.114,6.008c0.494,1.105,1.127,1.949,1.868,2.326l0.057,0.173L13,34.03
	v5.859c0,1.688,1.166,3.376,2.792,3.843l10.584,3.039c0.289,0.082,0.554,0.123,0.837,0.123c0.599,0,1.206-0.181,1.67-0.531
	C29.568,45.847,30,45.014,30,44.077v-5.149l12.142,3.491c0.374,0.172,0.734,0.287,1.146,0.287c4.239,0,6.444-9.572,6.444-19.028
	C49.732,14.223,47.501,4.652,43.262,4.652z M39.245,23.678c0-1.16,0.036-2.251,0.093-3.296c1.06,0.73,1.731,1.939,1.731,3.298
	c0,1.355-0.672,2.564-1.73,3.297C39.281,25.931,39.245,24.838,39.245,23.678z M36.804,23.678c0,5.863,0.722,11.767,2.382,15.409
	L7,29.791c0,0,0.323,0.032,0.344,0.045c-0.461-0.278-1.608-2.592-1.608-6.156c0-3.374,1.153-5.854,1.682-6.284l31.884-9.124
	C37.642,11.914,36.804,17.816,36.804,23.678z M2.847,23.678c0-0.803,0.244-1.548,0.653-2.181c-0.089,0.721-0.139,1.456-0.139,2.183
	c0,0.729,0.051,1.468,0.145,2.189C3.093,25.234,2.847,24.485,2.847,23.678z M27,44.077c0,0.161,0.187,0.287,0.12,0.338
	c-0.065,0.05-0.084,0.053-0.24,0.009l-10.692-3.038C15.606,41.219,15,40.492,15,39.89v-5.161l12,3.5V44.077z M43.352,40.242
	l-0.5-0.144c-1.102-0.754-2.655-4.351-3.303-10.463c2.377-0.989,3.962-3.306,3.962-5.956c0-2.654-1.585-4.971-3.962-5.958
	c0.647-6.107,2.198-9.704,3.301-10.461l0.504-0.145c1.386,0.242,3.925,6.058,3.925,16.562
	C47.278,34.188,44.737,40.005,43.352,40.242z"/>
</svg>
