<?xml version="1.0" encoding="utf-8"?>
<!-- Generator: Adobe Illustrator 16.0.0, SVG Export Plug-In . SVG Version: 6.00 Build 0)  -->
<!DOCTYPE svg PUBLIC "-//W3C//DTD SVG 1.1//EN" "http://www.w3.org/Graphics/SVG/1.1/DTD/svg11.dtd">
<svg version="1.1" id="Layer_1" xmlns="http://www.w3.org/2000/svg" xmlns:xlink="http://www.w3.org/1999/xlink" x="0px" y="0px"
	 width="50px" height="50px" viewBox="0 0 50 50" enable-background="new 0 0 50 50" xml:space="preserve">
<g>
	<path fill="#B3B3B3" d="M26.154,24.82V11.361c3.892,0.417,6.914,3.248,6.914,6.679c0,0.466,0.443,0.843,0.988,0.843
		s0.987-0.376,0.987-0.843c0-4.359-3.906-7.955-8.89-8.379V6.249c0-0.466-0.442-0.842-0.986-0.842c-0.547,0-0.989,0.376-0.989,0.842
		v3.412c-4.984,0.425-8.889,4.02-8.889,8.379c0,4.36,3.905,7.955,8.889,8.38v13.46c-3.888-0.416-6.914-3.251-6.914-6.68
		c0-0.465-0.443-0.843-0.986-0.843c-0.546,0-0.989,0.378-0.989,0.843c0,4.357,3.905,7.955,8.889,8.38v3.411
		c0,0.466,0.442,0.841,0.989,0.841c0.544,0,0.986-0.375,0.986-0.841V41.58c4.983-0.425,8.89-4.022,8.89-8.38
		C35.044,28.84,31.138,25.244,26.154,24.82 M17.266,18.04c0-3.431,3.025-6.262,6.914-6.679V24.72
		C20.291,24.303,17.266,21.47,17.266,18.04 M26.154,39.88V26.521c3.892,0.417,6.914,3.25,6.914,6.68
		C33.068,36.629,30.046,39.464,26.154,39.88"/>
	<path fill="#AAB3B6" d="M25.168,46.704c-1.026,0-1.861-0.769-1.861-1.713v-2.636c-5.121-0.767-8.889-4.588-8.889-9.155
		c0-0.945,0.835-1.715,1.861-1.715c1.025,0,1.858,0.77,1.858,1.715c0,2.662,2.164,4.963,5.169,5.651V27.195
		c-5.121-0.767-8.889-4.587-8.889-9.155c0-4.567,3.769-8.388,8.889-9.155V6.249c0-0.945,0.835-1.714,1.861-1.714
		c1.024,0,1.858,0.769,1.858,1.714v2.636c5.121,0.767,8.89,4.587,8.89,9.155c0,0.945-0.834,1.715-1.859,1.715s-1.86-0.77-1.86-1.715
		c0-2.661-2.163-4.962-5.17-5.65v11.655c5.121,0.766,8.89,4.587,8.89,9.155c0,4.567-3.769,8.388-8.89,9.155v2.636
		C27.026,45.936,26.192,46.704,25.168,46.704z M27.026,27.549v11.303c3.007-0.688,5.17-2.988,5.17-5.651
		C32.196,30.538,30.033,28.237,27.026,27.549z M23.307,12.39c-3.006,0.689-5.169,2.989-5.169,5.65c0,2.662,2.163,4.962,5.169,5.651
		V12.39z"/>
</g>
</svg>
